<?xml version="1.0" encoding="utf-8" standalone="no"?>
<!DOCTYPE svg PUBLIC "-//W3C//DTD SVG 1.1//EN"
  "http://www.w3.org/Graphics/SVG/1.1/DTD/svg11.dtd">
<svg height="248.518125pt" version="1.1" viewBox="0 0 382.603125 248.518125" width="382.603125pt" xmlns="http://www.w3.org/2000/svg" xmlns:xlink="http://www.w3.org/1999/xlink">
 <metadata>
  <rdf:RDF xmlns:cc="http://creativecommons.org/ns#" xmlns:dc="http://purl.org/dc/elements/1.1/" xmlns:rdf="http://www.w3.org/1999/02/22-rdf-syntax-ns#">
   <cc:Work>
    <dc:type rdf:resource="http://purl.org/dc/dcmitype/StillImage"/>
    <dc:date>2021-08-23T03:34:37.052922</dc:date>
    <dc:format>image/svg+xml</dc:format>
    <dc:creator>
     <cc:Agent>
      <dc:title>Matplotlib v3.4.3, https://matplotlib.org/</dc:title>
     </cc:Agent>
    </dc:creator>
   </cc:Work>
  </rdf:RDF>
 </metadata>
 <defs>
  <style type="text/css">*{stroke-linecap:butt;stroke-linejoin:round;}</style>
 </defs>
 <g id="figure_1">
  <g id="patch_1">
   <path d="M 0 248.518125 
L 382.603125 248.518125 
L 382.603125 0 
L 0 0 
z
" style="fill:none;"/>
  </g>
  <g id="axes_1">
   <g id="patch_2">
    <path d="M 40.603125 224.64 
L 375.403125 224.64 
L 375.403125 7.2 
L 40.603125 7.2 
z
" style="fill:#ffffff;"/>
   </g>
   <g id="matplotlib.axis_1">
    <g id="xtick_1">
     <g id="line2d_1">
      <defs>
       <path d="M 0 0 
L 0 3.5 
" id="m15f43552fc" style="stroke:#000000;stroke-width:0.8;"/>
      </defs>
      <g>
       <use style="stroke:#000000;stroke-width:0.8;" x="55.821307" xlink:href="#m15f43552fc" y="224.64"/>
      </g>
     </g>
     <g id="text_1">
      <!-- 0 -->
      <g transform="translate(52.640057 239.238437)scale(0.1 -0.1)">
       <defs>
        <path d="M 2034 4250 
Q 1547 4250 1301 3770 
Q 1056 3291 1056 2328 
Q 1056 1369 1301 889 
Q 1547 409 2034 409 
Q 2525 409 2770 889 
Q 3016 1369 3016 2328 
Q 3016 3291 2770 3770 
Q 2525 4250 2034 4250 
z
M 2034 4750 
Q 2819 4750 3233 4129 
Q 3647 3509 3647 2328 
Q 3647 1150 3233 529 
Q 2819 -91 2034 -91 
Q 1250 -91 836 529 
Q 422 1150 422 2328 
Q 422 3509 836 4129 
Q 1250 4750 2034 4750 
z
" id="DejaVuSans-30" transform="scale(0.015625)"/>
       </defs>
       <use xlink:href="#DejaVuSans-30"/>
      </g>
     </g>
    </g>
    <g id="xtick_2">
     <g id="line2d_2">
      <g>
       <use style="stroke:#000000;stroke-width:0.8;" x="116.694034" xlink:href="#m15f43552fc" y="224.64"/>
      </g>
     </g>
     <g id="text_2">
      <!-- 50 -->
      <g transform="translate(110.331534 239.238437)scale(0.1 -0.1)">
       <defs>
        <path d="M 691 4666 
L 3169 4666 
L 3169 4134 
L 1269 4134 
L 1269 2991 
Q 1406 3038 1543 3061 
Q 1681 3084 1819 3084 
Q 2600 3084 3056 2656 
Q 3513 2228 3513 1497 
Q 3513 744 3044 326 
Q 2575 -91 1722 -91 
Q 1428 -91 1123 -41 
Q 819 9 494 109 
L 494 744 
Q 775 591 1075 516 
Q 1375 441 1709 441 
Q 2250 441 2565 725 
Q 2881 1009 2881 1497 
Q 2881 1984 2565 2268 
Q 2250 2553 1709 2553 
Q 1456 2553 1204 2497 
Q 953 2441 691 2322 
L 691 4666 
z
" id="DejaVuSans-35" transform="scale(0.015625)"/>
       </defs>
       <use xlink:href="#DejaVuSans-35"/>
       <use x="63.623047" xlink:href="#DejaVuSans-30"/>
      </g>
     </g>
    </g>
    <g id="xtick_3">
     <g id="line2d_3">
      <g>
       <use style="stroke:#000000;stroke-width:0.8;" x="177.566761" xlink:href="#m15f43552fc" y="224.64"/>
      </g>
     </g>
     <g id="text_3">
      <!-- 100 -->
      <g transform="translate(168.023011 239.238437)scale(0.1 -0.1)">
       <defs>
        <path d="M 794 531 
L 1825 531 
L 1825 4091 
L 703 3866 
L 703 4441 
L 1819 4666 
L 2450 4666 
L 2450 531 
L 3481 531 
L 3481 0 
L 794 0 
L 794 531 
z
" id="DejaVuSans-31" transform="scale(0.015625)"/>
       </defs>
       <use xlink:href="#DejaVuSans-31"/>
       <use x="63.623047" xlink:href="#DejaVuSans-30"/>
       <use x="127.246094" xlink:href="#DejaVuSans-30"/>
      </g>
     </g>
    </g>
    <g id="xtick_4">
     <g id="line2d_4">
      <g>
       <use style="stroke:#000000;stroke-width:0.8;" x="238.439489" xlink:href="#m15f43552fc" y="224.64"/>
      </g>
     </g>
     <g id="text_4">
      <!-- 150 -->
      <g transform="translate(228.895739 239.238437)scale(0.1 -0.1)">
       <use xlink:href="#DejaVuSans-31"/>
       <use x="63.623047" xlink:href="#DejaVuSans-35"/>
       <use x="127.246094" xlink:href="#DejaVuSans-30"/>
      </g>
     </g>
    </g>
    <g id="xtick_5">
     <g id="line2d_5">
      <g>
       <use style="stroke:#000000;stroke-width:0.8;" x="299.312216" xlink:href="#m15f43552fc" y="224.64"/>
      </g>
     </g>
     <g id="text_5">
      <!-- 200 -->
      <g transform="translate(289.768466 239.238437)scale(0.1 -0.1)">
       <defs>
        <path d="M 1228 531 
L 3431 531 
L 3431 0 
L 469 0 
L 469 531 
Q 828 903 1448 1529 
Q 2069 2156 2228 2338 
Q 2531 2678 2651 2914 
Q 2772 3150 2772 3378 
Q 2772 3750 2511 3984 
Q 2250 4219 1831 4219 
Q 1534 4219 1204 4116 
Q 875 4013 500 3803 
L 500 4441 
Q 881 4594 1212 4672 
Q 1544 4750 1819 4750 
Q 2544 4750 2975 4387 
Q 3406 4025 3406 3419 
Q 3406 3131 3298 2873 
Q 3191 2616 2906 2266 
Q 2828 2175 2409 1742 
Q 1991 1309 1228 531 
z
" id="DejaVuSans-32" transform="scale(0.015625)"/>
       </defs>
       <use xlink:href="#DejaVuSans-32"/>
       <use x="63.623047" xlink:href="#DejaVuSans-30"/>
       <use x="127.246094" xlink:href="#DejaVuSans-30"/>
      </g>
     </g>
    </g>
    <g id="xtick_6">
     <g id="line2d_6">
      <g>
       <use style="stroke:#000000;stroke-width:0.8;" x="360.184943" xlink:href="#m15f43552fc" y="224.64"/>
      </g>
     </g>
     <g id="text_6">
      <!-- 250 -->
      <g transform="translate(350.641193 239.238437)scale(0.1 -0.1)">
       <use xlink:href="#DejaVuSans-32"/>
       <use x="63.623047" xlink:href="#DejaVuSans-35"/>
       <use x="127.246094" xlink:href="#DejaVuSans-30"/>
      </g>
     </g>
    </g>
   </g>
   <g id="matplotlib.axis_2">
    <g id="ytick_1">
     <g id="line2d_7">
      <defs>
       <path d="M 0 0 
L -3.5 0 
" id="m80b8a4625c" style="stroke:#000000;stroke-width:0.8;"/>
      </defs>
      <g>
       <use style="stroke:#000000;stroke-width:0.8;" x="40.603125" xlink:href="#m80b8a4625c" y="220.701438"/>
      </g>
     </g>
     <g id="text_7">
      <!-- 50 -->
      <g transform="translate(20.878125 224.500657)scale(0.1 -0.1)">
       <use xlink:href="#DejaVuSans-35"/>
       <use x="63.623047" xlink:href="#DejaVuSans-30"/>
      </g>
     </g>
    </g>
    <g id="ytick_2">
     <g id="line2d_8">
      <g>
       <use style="stroke:#000000;stroke-width:0.8;" x="40.603125" xlink:href="#m80b8a4625c" y="190.976214"/>
      </g>
     </g>
     <g id="text_8">
      <!-- 52 -->
      <g transform="translate(20.878125 194.775433)scale(0.1 -0.1)">
       <use xlink:href="#DejaVuSans-35"/>
       <use x="63.623047" xlink:href="#DejaVuSans-32"/>
      </g>
     </g>
    </g>
    <g id="ytick_3">
     <g id="line2d_9">
      <g>
       <use style="stroke:#000000;stroke-width:0.8;" x="40.603125" xlink:href="#m80b8a4625c" y="161.250989"/>
      </g>
     </g>
     <g id="text_9">
      <!-- 54 -->
      <g transform="translate(20.878125 165.050208)scale(0.1 -0.1)">
       <defs>
        <path d="M 2419 4116 
L 825 1625 
L 2419 1625 
L 2419 4116 
z
M 2253 4666 
L 3047 4666 
L 3047 1625 
L 3713 1625 
L 3713 1100 
L 3047 1100 
L 3047 0 
L 2419 0 
L 2419 1100 
L 313 1100 
L 313 1709 
L 2253 4666 
z
" id="DejaVuSans-34" transform="scale(0.015625)"/>
       </defs>
       <use xlink:href="#DejaVuSans-35"/>
       <use x="63.623047" xlink:href="#DejaVuSans-34"/>
      </g>
     </g>
    </g>
    <g id="ytick_4">
     <g id="line2d_10">
      <g>
       <use style="stroke:#000000;stroke-width:0.8;" x="40.603125" xlink:href="#m80b8a4625c" y="131.525765"/>
      </g>
     </g>
     <g id="text_10">
      <!-- 56 -->
      <g transform="translate(20.878125 135.324984)scale(0.1 -0.1)">
       <defs>
        <path d="M 2113 2584 
Q 1688 2584 1439 2293 
Q 1191 2003 1191 1497 
Q 1191 994 1439 701 
Q 1688 409 2113 409 
Q 2538 409 2786 701 
Q 3034 994 3034 1497 
Q 3034 2003 2786 2293 
Q 2538 2584 2113 2584 
z
M 3366 4563 
L 3366 3988 
Q 3128 4100 2886 4159 
Q 2644 4219 2406 4219 
Q 1781 4219 1451 3797 
Q 1122 3375 1075 2522 
Q 1259 2794 1537 2939 
Q 1816 3084 2150 3084 
Q 2853 3084 3261 2657 
Q 3669 2231 3669 1497 
Q 3669 778 3244 343 
Q 2819 -91 2113 -91 
Q 1303 -91 875 529 
Q 447 1150 447 2328 
Q 447 3434 972 4092 
Q 1497 4750 2381 4750 
Q 2619 4750 2861 4703 
Q 3103 4656 3366 4563 
z
" id="DejaVuSans-36" transform="scale(0.015625)"/>
       </defs>
       <use xlink:href="#DejaVuSans-35"/>
       <use x="63.623047" xlink:href="#DejaVuSans-36"/>
      </g>
     </g>
    </g>
    <g id="ytick_5">
     <g id="line2d_11">
      <g>
       <use style="stroke:#000000;stroke-width:0.8;" x="40.603125" xlink:href="#m80b8a4625c" y="101.800541"/>
      </g>
     </g>
     <g id="text_11">
      <!-- 58 -->
      <g transform="translate(20.878125 105.599759)scale(0.1 -0.1)">
       <defs>
        <path d="M 2034 2216 
Q 1584 2216 1326 1975 
Q 1069 1734 1069 1313 
Q 1069 891 1326 650 
Q 1584 409 2034 409 
Q 2484 409 2743 651 
Q 3003 894 3003 1313 
Q 3003 1734 2745 1975 
Q 2488 2216 2034 2216 
z
M 1403 2484 
Q 997 2584 770 2862 
Q 544 3141 544 3541 
Q 544 4100 942 4425 
Q 1341 4750 2034 4750 
Q 2731 4750 3128 4425 
Q 3525 4100 3525 3541 
Q 3525 3141 3298 2862 
Q 3072 2584 2669 2484 
Q 3125 2378 3379 2068 
Q 3634 1759 3634 1313 
Q 3634 634 3220 271 
Q 2806 -91 2034 -91 
Q 1263 -91 848 271 
Q 434 634 434 1313 
Q 434 1759 690 2068 
Q 947 2378 1403 2484 
z
M 1172 3481 
Q 1172 3119 1398 2916 
Q 1625 2713 2034 2713 
Q 2441 2713 2670 2916 
Q 2900 3119 2900 3481 
Q 2900 3844 2670 4047 
Q 2441 4250 2034 4250 
Q 1625 4250 1398 4047 
Q 1172 3844 1172 3481 
z
" id="DejaVuSans-38" transform="scale(0.015625)"/>
       </defs>
       <use xlink:href="#DejaVuSans-35"/>
       <use x="63.623047" xlink:href="#DejaVuSans-38"/>
      </g>
     </g>
    </g>
    <g id="ytick_6">
     <g id="line2d_12">
      <g>
       <use style="stroke:#000000;stroke-width:0.8;" x="40.603125" xlink:href="#m80b8a4625c" y="72.075316"/>
      </g>
     </g>
     <g id="text_12">
      <!-- 60 -->
      <g transform="translate(20.878125 75.874535)scale(0.1 -0.1)">
       <use xlink:href="#DejaVuSans-36"/>
       <use x="63.623047" xlink:href="#DejaVuSans-30"/>
      </g>
     </g>
    </g>
    <g id="ytick_7">
     <g id="line2d_13">
      <g>
       <use style="stroke:#000000;stroke-width:0.8;" x="40.603125" xlink:href="#m80b8a4625c" y="42.350092"/>
      </g>
     </g>
     <g id="text_13">
      <!-- 62 -->
      <g transform="translate(20.878125 46.149311)scale(0.1 -0.1)">
       <use xlink:href="#DejaVuSans-36"/>
       <use x="63.623047" xlink:href="#DejaVuSans-32"/>
      </g>
     </g>
    </g>
    <g id="ytick_8">
     <g id="line2d_14">
      <g>
       <use style="stroke:#000000;stroke-width:0.8;" x="40.603125" xlink:href="#m80b8a4625c" y="12.624868"/>
      </g>
     </g>
     <g id="text_14">
      <!-- 64 -->
      <g transform="translate(20.878125 16.424086)scale(0.1 -0.1)">
       <use xlink:href="#DejaVuSans-36"/>
       <use x="63.623047" xlink:href="#DejaVuSans-34"/>
      </g>
     </g>
    </g>
    <g id="text_15">
     <!-- Price -->
     <g transform="translate(14.798438 128.117656)rotate(-90)scale(0.1 -0.1)">
      <defs>
       <path d="M 1259 4147 
L 1259 2394 
L 2053 2394 
Q 2494 2394 2734 2622 
Q 2975 2850 2975 3272 
Q 2975 3691 2734 3919 
Q 2494 4147 2053 4147 
L 1259 4147 
z
M 628 4666 
L 2053 4666 
Q 2838 4666 3239 4311 
Q 3641 3956 3641 3272 
Q 3641 2581 3239 2228 
Q 2838 1875 2053 1875 
L 1259 1875 
L 1259 0 
L 628 0 
L 628 4666 
z
" id="DejaVuSans-50" transform="scale(0.015625)"/>
       <path d="M 2631 2963 
Q 2534 3019 2420 3045 
Q 2306 3072 2169 3072 
Q 1681 3072 1420 2755 
Q 1159 2438 1159 1844 
L 1159 0 
L 581 0 
L 581 3500 
L 1159 3500 
L 1159 2956 
Q 1341 3275 1631 3429 
Q 1922 3584 2338 3584 
Q 2397 3584 2469 3576 
Q 2541 3569 2628 3553 
L 2631 2963 
z
" id="DejaVuSans-72" transform="scale(0.015625)"/>
       <path d="M 603 3500 
L 1178 3500 
L 1178 0 
L 603 0 
L 603 3500 
z
M 603 4863 
L 1178 4863 
L 1178 4134 
L 603 4134 
L 603 4863 
z
" id="DejaVuSans-69" transform="scale(0.015625)"/>
       <path d="M 3122 3366 
L 3122 2828 
Q 2878 2963 2633 3030 
Q 2388 3097 2138 3097 
Q 1578 3097 1268 2742 
Q 959 2388 959 1747 
Q 959 1106 1268 751 
Q 1578 397 2138 397 
Q 2388 397 2633 464 
Q 2878 531 3122 666 
L 3122 134 
Q 2881 22 2623 -34 
Q 2366 -91 2075 -91 
Q 1284 -91 818 406 
Q 353 903 353 1747 
Q 353 2603 823 3093 
Q 1294 3584 2113 3584 
Q 2378 3584 2631 3529 
Q 2884 3475 3122 3366 
z
" id="DejaVuSans-63" transform="scale(0.015625)"/>
       <path d="M 3597 1894 
L 3597 1613 
L 953 1613 
Q 991 1019 1311 708 
Q 1631 397 2203 397 
Q 2534 397 2845 478 
Q 3156 559 3463 722 
L 3463 178 
Q 3153 47 2828 -22 
Q 2503 -91 2169 -91 
Q 1331 -91 842 396 
Q 353 884 353 1716 
Q 353 2575 817 3079 
Q 1281 3584 2069 3584 
Q 2775 3584 3186 3129 
Q 3597 2675 3597 1894 
z
M 3022 2063 
Q 3016 2534 2758 2815 
Q 2500 3097 2075 3097 
Q 1594 3097 1305 2825 
Q 1016 2553 972 2059 
L 3022 2063 
z
" id="DejaVuSans-65" transform="scale(0.015625)"/>
      </defs>
      <use xlink:href="#DejaVuSans-50"/>
      <use x="58.552734" xlink:href="#DejaVuSans-72"/>
      <use x="99.666016" xlink:href="#DejaVuSans-69"/>
      <use x="127.449219" xlink:href="#DejaVuSans-63"/>
      <use x="182.429688" xlink:href="#DejaVuSans-65"/>
     </g>
    </g>
   </g>
   <g id="line2d_15">
    <path clip-path="url(#p12ac712517)" d="M 55.821307 130.039534 
L 57.038761 135.984534 
L 58.256216 146.388377 
L 59.47367 152.333452 
L 60.691125 150.847146 
L 61.90858 143.41584 
L 63.126034 165.709758 
L 64.343489 171.654833 
L 65.560943 171.654833 
L 66.778398 161.250989 
L 67.995852 165.709758 
L 69.213307 159.764758 
L 70.430761 147.874609 
L 71.648216 149.360915 
L 74.083125 146.388377 
L 75.30058 140.443303 
L 76.518034 152.333452 
L 77.735489 152.333452 
L 78.952943 143.41584 
L 80.170398 146.388377 
L 82.605307 164.223527 
L 83.822761 161.250989 
L 86.25767 164.223527 
L 87.475125 174.62737 
L 88.69258 177.599833 
L 89.910034 167.196064 
L 91.127489 168.682296 
L 92.344943 165.709758 
L 93.562398 164.223527 
L 94.779852 165.709758 
L 95.997307 165.709758 
L 97.214761 159.764758 
L 98.432216 158.278452 
L 100.867125 146.388377 
L 102.08458 141.929608 
L 103.302034 113.690616 
L 104.519489 101.800541 
L 105.736943 104.773078 
L 106.954398 124.094459 
L 108.171852 113.690616 
L 109.389307 158.278452 
L 110.606761 161.250989 
L 111.824216 161.250989 
L 113.04167 168.682296 
L 114.259125 196.921288 
L 115.47658 205.838826 
L 116.694034 196.921288 
L 117.911489 195.434983 
L 119.128943 177.599833 
L 120.346398 170.168527 
L 121.563852 161.250989 
L 122.781307 147.874609 
L 125.216216 159.764758 
L 126.43367 162.737221 
L 127.651125 152.333452 
L 128.86858 162.737221 
L 131.303489 153.819683 
L 132.520943 150.847146 
L 133.738398 159.764758 
L 136.173307 162.737221 
L 137.390761 158.278452 
L 138.608216 156.792221 
L 139.82567 149.360915 
L 141.043125 133.011997 
L 142.26058 133.011997 
L 143.478034 143.41584 
L 144.695489 138.957071 
L 145.912943 143.41584 
L 147.130398 140.443303 
L 148.347852 146.388377 
L 149.565307 140.443303 
L 150.782761 150.847146 
L 152.000216 141.929608 
L 153.21767 152.333452 
L 155.65258 149.360915 
L 158.087489 152.333452 
L 159.304943 158.278452 
L 160.522398 147.874609 
L 161.739852 152.333452 
L 162.957307 147.874609 
L 164.174761 150.847146 
L 165.392216 147.874609 
L 166.60967 140.443303 
L 167.827125 138.957071 
L 169.04458 147.874609 
L 170.262034 161.250989 
L 171.479489 150.847146 
L 172.696943 133.011997 
L 173.914398 141.929608 
L 175.131852 146.388377 
L 176.349307 144.902146 
L 177.566761 135.984534 
L 178.784216 140.443303 
L 180.00167 146.388377 
L 182.43658 155.305915 
L 183.654034 153.819683 
L 184.871489 150.847146 
L 186.088943 158.278452 
L 188.523852 158.278452 
L 189.741307 161.250989 
L 190.958761 161.250989 
L 192.176216 168.682296 
L 193.39367 161.250989 
L 194.611125 171.654833 
L 195.82858 176.113602 
L 197.046034 189.489982 
L 198.263489 198.40752 
L 199.480943 202.866289 
L 200.698398 196.921288 
L 201.915852 189.489982 
L 203.133307 188.003677 
L 204.350761 190.976214 
L 205.568216 195.434983 
L 206.78567 193.948751 
L 208.003125 195.434983 
L 209.22058 195.434983 
L 211.655489 198.40752 
L 212.872943 193.948751 
L 214.090398 195.434983 
L 215.307852 198.40752 
L 216.525307 205.838826 
L 217.742761 205.838826 
L 218.960216 207.325058 
L 220.17767 213.270132 
L 221.395125 202.866289 
L 222.61258 210.297595 
L 223.830034 214.756364 
L 225.047489 205.838826 
L 227.482398 211.783901 
L 228.699852 205.838826 
L 229.917307 210.297595 
L 231.134761 204.352595 
L 232.352216 205.838826 
L 234.787125 190.976214 
L 237.222034 199.893751 
L 238.439489 196.921288 
L 239.656943 198.40752 
L 240.874398 189.489982 
L 242.091852 196.921288 
L 243.309307 195.434983 
L 244.526761 190.976214 
L 245.744216 192.462445 
L 246.96167 190.976214 
L 248.179125 185.031139 
L 249.39658 176.113602 
L 250.614034 173.141064 
L 251.831489 176.113602 
L 253.048943 176.113602 
L 254.266398 173.141064 
L 255.483852 173.141064 
L 256.701307 177.599833 
L 257.918761 179.086139 
L 259.136216 190.976214 
L 260.35367 192.462445 
L 261.571125 192.462445 
L 262.78858 190.976214 
L 264.006034 185.031139 
L 265.223489 195.434983 
L 266.440943 190.976214 
L 267.658398 190.976214 
L 268.875852 185.031139 
L 270.093307 174.62737 
L 271.310761 147.874609 
L 272.528216 164.223527 
L 273.74567 165.709758 
L 274.963125 153.819683 
L 276.18058 149.360915 
L 277.398034 149.360915 
L 278.615489 161.250989 
L 279.832943 155.305915 
L 281.050398 146.388377 
L 282.267852 141.929608 
L 283.485307 149.360915 
L 284.702761 152.333452 
L 285.920216 152.333452 
L 287.13767 153.819683 
L 288.355125 149.360915 
L 289.57258 147.874609 
L 290.790034 143.41584 
L 292.007489 153.819683 
L 293.224943 149.360915 
L 294.442398 143.41584 
L 295.659852 141.929608 
L 296.877307 116.663153 
L 298.094761 124.094459 
L 299.312216 115.176921 
L 300.52967 88.42416 
L 301.747125 55.726473 
L 302.96458 33.432554 
L 304.182034 34.918786 
L 305.399489 20.056174 
L 306.616943 24.514942 
L 307.834398 45.322629 
L 309.051852 49.781398 
L 310.269307 49.781398 
L 311.486761 51.26763 
L 312.704216 36.405017 
L 313.92167 45.322629 
L 315.139125 26.001248 
L 316.35658 21.542405 
L 317.574034 21.542405 
L 318.791489 17.083636 
L 320.008943 17.083636 
L 321.226398 21.542405 
L 322.443852 27.48748 
L 323.661307 36.405017 
L 324.878761 42.350092 
L 326.096216 60.185241 
L 327.31367 67.616548 
L 328.531125 73.561548 
L 329.74858 97.341772 
L 330.966034 106.25931 
L 332.183489 92.883003 
L 333.400943 104.773078 
L 334.618398 88.42416 
L 335.835852 86.937929 
L 337.053307 92.883003 
L 338.270761 94.369235 
L 339.488216 94.369235 
L 340.70567 91.396697 
L 341.923125 97.341772 
L 343.14058 94.369235 
L 344.358034 110.718078 
L 345.575489 134.498302 
L 346.792943 116.663153 
L 348.010398 119.63569 
L 349.227852 128.553228 
L 350.445307 115.176921 
L 351.662761 119.63569 
L 352.880216 131.525765 
L 354.09767 130.039534 
L 355.315125 130.039534 
L 356.53258 124.094459 
L 357.750034 119.63569 
L 358.967489 133.011997 
L 360.184943 137.47084 
L 360.184943 137.47084 
" style="fill:none;stroke:#1f77b4;stroke-linecap:square;stroke-width:1.5;"/>
   </g>
   <g id="patch_3">
    <path d="M 40.603125 224.64 
L 40.603125 7.2 
" style="fill:none;stroke:#000000;stroke-linecap:square;stroke-linejoin:miter;stroke-width:0.8;"/>
   </g>
   <g id="patch_4">
    <path d="M 375.403125 224.64 
L 375.403125 7.2 
" style="fill:none;stroke:#000000;stroke-linecap:square;stroke-linejoin:miter;stroke-width:0.8;"/>
   </g>
   <g id="patch_5">
    <path d="M 40.603125 224.64 
L 375.403125 224.64 
" style="fill:none;stroke:#000000;stroke-linecap:square;stroke-linejoin:miter;stroke-width:0.8;"/>
   </g>
   <g id="patch_6">
    <path d="M 40.603125 7.2 
L 375.403125 7.2 
" style="fill:none;stroke:#000000;stroke-linecap:square;stroke-linejoin:miter;stroke-width:0.8;"/>
   </g>
  </g>
 </g>
 <defs>
  <clipPath id="p12ac712517">
   <rect height="217.44" width="334.8" x="40.603125" y="7.2"/>
  </clipPath>
 </defs>
</svg>
